<?xml version="1.0" encoding="UTF-8"?>
<svg xmlns="http://www.w3.org/2000/svg" xmlns:xlink="http://www.w3.org/1999/xlink" width="34px" height="34px" viewBox="0 0 34 34" version="1.1">
<g id="surface1">
<path style="fill:none;stroke-width:24;stroke-linecap:butt;stroke-linejoin:miter;stroke:rgb(37.647059%,85.098039%,98.039216%);stroke-opacity:1;stroke-miterlimit:10;" d="M 299.529 197.644427 C 366.877826 197.644427 429.468982 207.283342 476.61316 223.533563 C 533.458041 243.120332 568.43 272.77853 568.43 299.656273 C 568.43 327.646197 531.41904 359.158033 470.372581 379.362681 C 424.21701 394.624296 363.479491 402.656724 299.529 402.656724 C 233.972024 402.656724 171.87517 395.118599 125.225296 379.177317 C 66.217838 359.034457 30.628 327.090106 30.628 299.656273 C 30.628 272.963894 63.993473 243.552847 120.035111 224.027866 C 167.426441 207.530493 231.500507 197.644427 299.529 197.644427 Z M 299.529 197.644427 " transform="matrix(0.0632203,0,0,0.0632203,-1.936311,-1.967795)"/>
<path style="fill:none;stroke-width:24;stroke-linecap:butt;stroke-linejoin:miter;stroke:rgb(37.647059%,85.098039%,98.039216%);stroke-opacity:1;stroke-miterlimit:10;" d="M 210.739768 248.928395 C 244.414181 190.600605 284.020234 141.170274 321.649073 108.42268 C 367.001402 69.001991 410.191153 53.493225 433.423409 66.96299 C 457.706059 80.927058 466.479943 128.750903 453.504481 191.712787 C 443.680202 239.351269 420.262583 295.948998 388.318232 351.310968 C 355.570638 408.094061 318.065374 458.142271 280.930838 490.580926 C 233.972024 531.669888 188.557907 546.560775 164.76956 532.843858 C 141.660881 519.497669 132.825209 475.875402 143.947034 417.6094 C 153.277009 368.302645 176.756416 307.812277 210.739768 248.928395 Z M 210.739768 248.928395 " transform="matrix(0.0632203,0,0,0.0632203,-1.936311,-1.967795)"/>
<path style="fill:none;stroke-width:24;stroke-linecap:butt;stroke-linejoin:miter;stroke:rgb(37.647059%,85.098039%,98.039216%);stroke-opacity:1;stroke-miterlimit:10;" d="M 210.801556 351.496332 C 177.065355 293.168542 154.080251 234.222872 144.503125 185.225057 C 132.948785 126.217599 141.10479 81.112422 164.398833 67.642657 C 188.619695 53.616801 234.404539 69.92881 282.537324 112.624258 C 318.868617 144.877549 356.188517 193.442849 388.256444 248.80482 C 421.065826 305.526124 445.719204 362.988884 455.29633 411.36882 C 467.406761 472.538855 457.582483 519.312305 433.794136 533.09101 C 410.747244 546.437199 368.546099 532.287767 323.564498 493.608533 C 285.564932 460.860939 244.908484 410.318426 210.801556 351.496332 Z M 210.801556 351.496332 " transform="matrix(0.0632203,0,0,0.0632203,-1.936311,-1.967795)"/>
<path style=" stroke:none;fill-rule:nonzero;fill:rgb(37.647059%,85.098039%,98.039216%);fill-opacity:1;" d="M 17.132812 11.855469 L 16.304688 13.40625 C 16.210938 13.574219 16.042969 13.558594 15.875 13.464844 L 15.273438 13.152344 L 15.722656 15.53125 C 15.816406 15.964844 15.511719 15.964844 15.363281 15.777344 L 14.316406 14.605469 L 14.148438 15.199219 C 14.128906 15.277344 14.042969 15.359375 13.914062 15.339844 L 12.589844 15.0625 L 12.9375 16.328125 C 13.011719 16.609375 13.070312 16.726562 12.863281 16.800781 L 12.390625 17.023438 L 14.667969 18.878906 C 14.757812 18.949219 14.804688 19.078125 14.773438 19.191406 L 14.574219 19.847656 L 16.84375 19.585938 C 16.914062 19.582031 16.960938 19.621094 16.960938 19.703125 L 16.820312 22.125 L 17.445312 22.125 L 17.304688 19.703125 C 17.304688 19.621094 17.351562 19.582031 17.421875 19.585938 C 18.203125 19.675781 18.90625 19.757812 19.691406 19.847656 L 19.492188 19.191406 C 19.460938 19.078125 19.507812 18.949219 19.597656 18.878906 L 21.875 17.023438 L 21.402344 16.800781 C 21.195312 16.726562 21.253906 16.609375 21.328125 16.328125 L 21.675781 15.0625 L 20.351562 15.339844 C 20.222656 15.359375 20.136719 15.277344 20.117188 15.199219 L 19.945312 14.605469 L 18.902344 15.777344 C 18.753906 15.964844 18.449219 15.964844 18.542969 15.53125 L 18.992188 13.152344 L 18.390625 13.464844 C 18.222656 13.558594 18.054688 13.574219 17.960938 13.40625 Z M 17.132812 11.855469 "/>
</g>
</svg>
