<svg width="32" height="32" viewBox="0 0 32 32" fill="none" xmlns="http://www.w3.org/2000/svg">
<path d="M24.9753 12.9999C24.9769 11.8139 24.7438 10.6393 24.2894 9.54386C23.835 8.44838 23.1683 7.45367 22.3276 6.61707C21.487 5.78047 20.4891 5.11852 19.3914 4.66938C18.2938 4.22025 17.1181 3.99281 15.9321 4.00017C10.9834 4.03696 7.02503 8.15034 7.02503 13.1129V13.9999C7.02503 18.4769 6.08838 21.0748 5.26341 22.4947C5.17454 22.6464 5.12725 22.8189 5.12631 22.9947C5.12537 23.1705 5.17081 23.3435 5.25805 23.4962C5.34529 23.6488 5.47125 23.7758 5.62321 23.8642C5.77518 23.9527 5.94778 23.9995 6.12361 23.9999H25.8777C26.0535 23.9995 26.2262 23.9526 26.3781 23.8642C26.5301 23.7757 26.6561 23.6487 26.7433 23.496C26.8305 23.3434 26.876 23.1704 26.875 22.9945C26.874 22.8187 26.8267 22.6462 26.7378 22.4945C25.9124 21.0745 24.9753 18.4766 24.9753 13.9999L24.9753 12.9999Z" stroke="#3E3E3E" stroke-width="1.5" stroke-linecap="round" stroke-linejoin="round"/>
<path d="M20 24V25C20 26.0609 19.5786 27.0783 18.8284 27.8284C18.0783 28.5786 17.0609 29 16 29C14.9391 29 13.9217 28.5786 13.1716 27.8284C12.4214 27.0783 12 26.0609 12 25V24" stroke="#3E3E3E" stroke-width="1.5" stroke-linecap="round" stroke-linejoin="round"/>
</svg>
