<svg width="30" height="30" viewBox="0 0 30 30" fill="none" xmlns="http://www.w3.org/2000/svg">
<path d="M9.375 26.9531C10.2811 26.9531 11.0156 26.2186 11.0156 25.3125C11.0156 24.4064 10.2811 23.6719 9.375 23.6719C8.46891 23.6719 7.73438 24.4064 7.73438 25.3125C7.73438 26.2186 8.46891 26.9531 9.375 26.9531Z" fill="#3E3E3E"/>
<path d="M21.5625 26.9531C22.4686 26.9531 23.2031 26.2186 23.2031 25.3125C23.2031 24.4064 22.4686 23.6719 21.5625 23.6719C20.6564 23.6719 19.9219 24.4064 19.9219 25.3125C19.9219 26.2186 20.6564 26.9531 21.5625 26.9531Z" fill="#3E3E3E"/>
<path d="M4.95536 8.4375H25.9821L22.8885 19.2651C22.7766 19.6569 22.5401 20.0015 22.2148 20.2469C21.8895 20.4923 21.4931 20.625 21.0857 20.625H9.85182C9.44436 20.625 9.04799 20.4923 8.7227 20.2469C8.39741 20.0015 8.1609 19.6569 8.04896 19.2651L3.81034 4.42995C3.75437 4.23406 3.63612 4.06173 3.47347 3.93905C3.31083 3.81636 3.11264 3.75 2.90891 3.75H0.9375" stroke="#3E3E3E" stroke-width="1.5" stroke-linecap="round" stroke-linejoin="round"/>
</svg>
