<svg width="88" height="88" viewBox="0 0 88 88" fill="none" xmlns="http://www.w3.org/2000/svg">
<g opacity="0.2">
<path d="M27.5 79.75C30.5376 79.75 33 77.2876 33 74.25C33 71.2124 30.5376 68.75 27.5 68.75C24.4624 68.75 22 71.2124 22 74.25C22 77.2876 24.4624 79.75 27.5 79.75Z" fill="#575757"/>
<path d="M63.25 79.75C66.2876 79.75 68.75 77.2876 68.75 74.25C68.75 71.2124 66.2876 68.75 63.25 68.75C60.2124 68.75 57.75 71.2124 57.75 74.25C57.75 77.2876 60.2124 79.75 63.25 79.75Z" fill="#575757"/>
<path d="M14.5357 24.75H76.2143L67.1397 56.511C66.8114 57.6602 66.1176 58.6712 65.1634 59.3909C64.2092 60.1107 63.0465 60.5 61.8513 60.5H28.8987C27.7035 60.5 26.5408 60.1107 25.5866 59.3909C24.6324 58.6712 23.9386 57.6602 23.6103 56.511L11.177 12.9945C11.0128 12.4199 10.6659 11.9144 10.1889 11.5545C9.71176 11.1947 9.13042 11 8.53281 11H2.75" stroke="#575757" stroke-width="5" stroke-linecap="round" stroke-linejoin="round"/>
</g>
</svg>
