<svg width="23" height="23" viewBox="0 0 23 23" fill="none" xmlns="http://www.w3.org/2000/svg">
<path d="M11.022 2.32646L3.77572 3.77572L2.32646 11.022C2.30325 11.138 2.30905 11.258 2.34334 11.3713C2.37763 11.4845 2.43935 11.5875 2.52302 11.6712L11.9074 21.0556C11.9742 21.1224 12.0534 21.1753 12.1406 21.2114C12.2278 21.2476 12.3213 21.2662 12.4157 21.2662C12.5101 21.2662 12.6035 21.2476 12.6907 21.2114C12.7779 21.1753 12.8572 21.1224 12.9239 21.0556L21.0556 12.9239C21.1224 12.8572 21.1753 12.7779 21.2114 12.6907C21.2476 12.6035 21.2662 12.5101 21.2662 12.4157C21.2662 12.3213 21.2476 12.2278 21.2114 12.1406C21.1753 12.0534 21.1224 11.9742 21.0556 11.9074L11.6712 2.52302C11.5875 2.43935 11.4845 2.37763 11.3713 2.34334C11.258 2.30905 11.138 2.30325 11.022 2.32646V2.32646Z" stroke="#575757" stroke-linecap="round" stroke-linejoin="round"/>
<path d="M7.46875 8.46875C8.02103 8.46875 8.46875 8.02103 8.46875 7.46875C8.46875 6.91647 8.02103 6.46875 7.46875 6.46875C6.91647 6.46875 6.46875 6.91647 6.46875 7.46875C6.46875 8.02103 6.91647 8.46875 7.46875 8.46875Z" fill="#575757"/>
</svg>
