<svg width="23" height="23" viewBox="0 0 23 23" fill="none" xmlns="http://www.w3.org/2000/svg">
<path d="M5.03125 5.03125V9.98129C5.03125 13.5481 7.88421 16.5046 11.451 16.5311C12.3045 16.5375 13.151 16.375 13.9415 16.0528C14.7319 15.7307 15.4508 15.2552 16.0567 14.6539C16.6626 14.0526 17.1435 13.3373 17.4716 12.5493C17.7998 11.7613 17.9687 10.9161 17.9688 10.0625V5.03125C17.9688 4.84063 17.893 4.65781 17.7582 4.52302C17.6234 4.38823 17.4406 4.3125 17.25 4.3125H5.75C5.55938 4.3125 5.37656 4.38823 5.24177 4.52302C5.10698 4.65781 5.03125 4.84063 5.03125 5.03125Z" stroke="#575757" stroke-linecap="round" stroke-linejoin="round"/>
<path d="M8.625 20.125H14.375" stroke="#575757" stroke-linecap="round" stroke-linejoin="round"/>
<path d="M11.5 16.5312V20.125" stroke="#575757" stroke-linecap="round" stroke-linejoin="round"/>
<path d="M17.8047 11.5H18.6838C19.4463 11.5 20.1775 11.1971 20.7167 10.6579C21.2559 10.1188 21.5588 9.3875 21.5588 8.625V7.1875C21.5588 6.99688 21.483 6.81406 21.3482 6.67927C21.2134 6.54448 21.0306 6.46875 20.84 6.46875H17.965" stroke="#575757" stroke-linecap="round" stroke-linejoin="round"/>
<path d="M5.21131 11.5H4.30469C3.54219 11.5 2.81092 11.1971 2.27176 10.6579C1.73259 10.1188 1.42969 9.3875 1.42969 8.625V7.1875C1.42969 6.99688 1.50541 6.81406 1.6402 6.67927C1.775 6.54448 1.95781 6.46875 2.14844 6.46875H5.02344" stroke="#575757" stroke-linecap="round" stroke-linejoin="round"/>
</svg>
