<svg width="23" height="23" viewBox="0 0 23 23" fill="none" xmlns="http://www.w3.org/2000/svg">
<path d="M11.5 20.125C16.2635 20.125 20.125 16.2635 20.125 11.5C20.125 6.73654 16.2635 2.875 11.5 2.875C6.73654 2.875 2.875 6.73654 2.875 11.5C2.875 16.2635 6.73654 20.125 11.5 20.125Z" stroke="#575757" stroke-linecap="round" stroke-linejoin="round"/>
<path d="M11.5 14.375C13.4848 14.375 15.0938 12.766 15.0938 10.7812C15.0938 8.79648 13.4848 7.1875 11.5 7.1875C9.51523 7.1875 7.90625 8.79648 7.90625 10.7812C7.90625 12.766 9.51523 14.375 11.5 14.375Z" stroke="#575757" stroke-linecap="round" stroke-linejoin="round"/>
<path d="M5.73438 17.9125C6.27578 16.8481 7.10119 15.9542 8.11921 15.3298C9.13724 14.7055 10.3082 14.375 11.5024 14.375C12.6967 14.375 13.8676 14.7055 14.8856 15.3298C15.9037 15.9542 16.7291 16.848 17.2705 17.9125" stroke="#575757" stroke-linecap="round" stroke-linejoin="round"/>
</svg>
