<svg width="23" height="23" viewBox="0 0 23 23" fill="none" xmlns="http://www.w3.org/2000/svg">
<path d="M11.5 16.1719C13.4848 16.1719 15.0938 14.5629 15.0938 12.5781C15.0938 10.5934 13.4848 8.98438 11.5 8.98438C9.51523 8.98438 7.90625 10.5934 7.90625 12.5781C7.90625 14.5629 9.51523 16.1719 11.5 16.1719Z" stroke="#CB0736" stroke-linecap="round" stroke-linejoin="round"/>
<path d="M17.6094 10.4219C18.4463 10.4212 19.2719 10.6157 20.0206 10.9899C20.7692 11.3642 21.4202 11.9078 21.922 12.5777" stroke="#CB0736" stroke-linecap="round" stroke-linejoin="round"/>
<path d="M1.07812 12.5779C1.57985 11.908 2.23091 11.3643 2.97957 10.99C3.72824 10.6157 4.55387 10.4212 5.39088 10.4219" stroke="#CB0736" stroke-linecap="round" stroke-linejoin="round"/>
<path d="M6.32812 19.4062C6.80027 18.4364 7.53556 17.6189 8.45006 17.047C9.36456 16.4751 10.4214 16.1719 11.5 16.1719C12.5786 16.1719 13.6355 16.4751 14.55 17.047C15.4645 17.6189 16.1998 18.4364 16.6719 19.4061" stroke="#CB0736" stroke-linecap="round" stroke-linejoin="round"/>
<path d="M5.39009 10.4219C4.84459 10.4218 4.31038 10.2665 3.84984 9.97414C3.38929 9.68179 3.02143 9.26445 2.78919 8.77086C2.55695 8.27727 2.46993 7.72779 2.53829 7.1866C2.60665 6.6454 2.82756 6.13482 3.17524 5.71448C3.52292 5.29413 3.983 4.98138 4.50178 4.81273C5.02055 4.64408 5.5766 4.6265 6.10498 4.76204C6.63337 4.89758 7.1123 5.18065 7.48584 5.57819C7.85937 5.97573 8.1121 6.47134 8.21451 7.00713" stroke="#CB0736" stroke-linecap="round" stroke-linejoin="round"/>
<path d="M14.7812 7.00767C14.8836 6.47179 15.1363 5.97609 15.5099 5.57846C15.8834 5.18083 16.3624 4.89768 16.8908 4.76209C17.4193 4.6265 17.9754 4.64405 18.4943 4.81271C19.0131 4.98136 19.4733 5.29415 19.821 5.71454C20.1687 6.13494 20.3897 6.64559 20.458 7.18686C20.5264 7.72813 20.4393 8.27768 20.207 8.77133C19.9747 9.26498 19.6068 9.68235 19.1462 9.9747C18.6855 10.267 18.1512 10.4223 17.6057 10.4224" stroke="#CB0736" stroke-linecap="round" stroke-linejoin="round"/>
</svg>
