<svg width="76" height="76" viewBox="0 0 76 76" fill="none" xmlns="http://www.w3.org/2000/svg">
<g opacity="0.5">
<path d="M61.75 16.625H53.5193L49.4743 10.5576C49.2575 10.2323 48.9636 9.96553 48.6189 9.78103C48.2742 9.59653 47.8893 9.5 47.4983 9.5H28.4983C28.1073 9.5 27.7223 9.59653 27.3776 9.78103C27.0329 9.96553 26.739 10.2323 26.5222 10.5576L22.4773 16.625H14.25C12.361 16.6272 10.55 17.3785 9.21425 18.7143C7.87852 20.05 7.12716 21.861 7.125 23.75V57C7.12716 58.889 7.87852 60.7 9.21425 62.0358C10.55 63.3715 12.361 64.1228 14.25 64.125H61.75C63.639 64.1228 65.45 63.3715 66.7858 62.0358C68.1215 60.7 68.8728 58.889 68.875 57V23.75C68.8728 21.861 68.1215 20.05 66.7858 18.7143C65.45 17.3785 63.639 16.6272 61.75 16.625ZM48.6875 39.1875C48.6875 41.3013 48.0607 43.3676 46.8863 45.1252C45.712 46.8827 44.0428 48.2525 42.0899 49.0615C40.137 49.8704 37.9881 50.082 35.915 49.6696C33.8418 49.2573 31.9375 48.2394 30.4428 46.7447C28.9481 45.25 27.9302 43.3457 27.5179 41.2725C27.1055 39.1994 27.3171 37.0505 28.126 35.0976C28.9349 33.1447 30.3048 31.4755 32.0623 30.3012C33.8199 29.1268 35.8862 28.5 38 28.5C40.8335 28.5032 43.5501 29.6302 45.5537 31.6338C47.5573 33.6374 48.6843 36.354 48.6875 39.1875Z" fill="white"/>
</g>
</svg>
