<svg width="28" height="28" viewBox="0 0 28 28" fill="none" xmlns="http://www.w3.org/2000/svg">
<path d="M15.9542 21.4248L14.3759 24.1244C14.3002 24.254 14.193 24.3612 14.0649 24.4357C13.9368 24.5101 13.7921 24.5493 13.6448 24.5493C13.4976 24.5493 13.3529 24.5101 13.2248 24.4357C13.0967 24.3612 12.9895 24.254 12.9138 24.1244L11.3355 21.4248C11.2597 21.2952 11.1526 21.188 11.0245 21.1135C10.8964 21.0391 10.7517 21 10.6044 21H4.26663C4.04051 21 3.82366 20.9078 3.66377 20.7437C3.50389 20.5796 3.41406 20.357 3.41406 20.125V6.125C3.41406 5.89294 3.50389 5.67038 3.66377 5.50628C3.82366 5.34219 4.04051 5.25 4.26663 5.25H23.023C23.2492 5.25 23.466 5.34219 23.6259 5.50628C23.7858 5.67038 23.8756 5.89294 23.8756 6.125V20.125C23.8756 20.3571 23.7858 20.5796 23.6259 20.7437C23.466 20.9078 23.2492 21 23.023 21L16.6852 21C16.538 21 16.3933 21.0391 16.2652 21.1135C16.1371 21.188 16.0299 21.2952 15.9542 21.4248V21.4248Z" stroke="#252525" stroke-linecap="round" stroke-linejoin="round"/>
<path d="M10.2891 14H16.9878" stroke="#252525" stroke-linecap="round" stroke-linejoin="round"/>
<path d="M13.6406 10.5625V17.4375" stroke="#252525" stroke-linecap="round" stroke-linejoin="round"/>
</svg>
