<svg width="65" height="65" viewBox="0 0 65 65" fill="none" xmlns="http://www.w3.org/2000/svg">
<path d="M50.7832 56.875H14.2188C13.68 56.875 13.1634 56.661 12.7824 56.2801C12.4015 55.8991 12.1875 55.3825 12.1875 54.8438V10.1562C12.1875 9.61753 12.4015 9.10087 12.7824 8.71994C13.1634 8.33901 13.68 8.125 14.2188 8.125H38.5957L52.8145 22.3438V54.8438C52.8145 55.1105 52.7619 55.3746 52.6599 55.6211C52.5578 55.8675 52.4082 56.0914 52.2195 56.2801C52.0309 56.4687 51.807 56.6183 51.5606 56.7204C51.3141 56.8225 51.05 56.875 50.7832 56.875Z" stroke="#575757" stroke-width="2" stroke-linecap="round" stroke-linejoin="round"/>
<path d="M38.5938 8.125V22.3438H52.8145" stroke="#575757" stroke-width="2" stroke-linecap="round" stroke-linejoin="round"/>
<path d="M25.3906 37.5781L32.5 30.4688L39.6094 37.5781" stroke="#575757" stroke-width="2" stroke-linecap="round" stroke-linejoin="round"/>
<path d="M32.5 46.7188V30.4688" stroke="#575757" stroke-width="2" stroke-linecap="round" stroke-linejoin="round"/>
</svg>
