<svg width="25" height="24" viewBox="0 0 25 24" fill="none" xmlns="http://www.w3.org/2000/svg">
<path d="M2.60415 4H22.3958C23.834 4 24.9999 5.11928 24.9999 6.49998V17.5C24.9999 18.8807 23.834 20 22.3958 20H2.60415C1.16592 20 0 18.8807 0 17.5V6.50003C0 5.11928 1.16592 4 2.60415 4Z" fill="#CB0736"/>
<path d="M25 7H0V11H25V7Z" fill="#455A64"/>
<path d="M7.81445 15H3.6478C3.36016 15 3.12695 14.7762 3.12695 14.5C3.12695 14.2239 3.36016 14 3.6478 14H7.81445C8.1021 14 8.3353 14.2239 8.3353 14.5C8.3353 14.7762 8.1021 15 7.81445 15Z" fill="#FAFAFA"/>
<path d="M10.9395 17H3.6478C3.36016 17 3.12695 16.7762 3.12695 16.5C3.12695 16.2239 3.36016 16 3.6478 16H10.9395C11.2271 16 11.4603 16.2239 11.4603 16.5C11.4603 16.7762 11.2271 17 10.9395 17Z" fill="#FAFAFA"/>
</svg>
