<svg width="76" height="20" viewBox="0 0 76 20" fill="none" xmlns="http://www.w3.org/2000/svg">
<path d="M13.7283 5.19849C13.4889 5.12937 13.2454 5.07542 12.9991 5.03697C12.5126 4.96235 12.0209 4.92655 11.5286 4.9299H7.07232C6.90273 4.92977 6.73868 4.9902 6.60984 5.10025C6.48099 5.21031 6.39585 5.36274 6.36981 5.52998L5.42181 11.5223L5.39453 11.6971C5.42406 11.5063 5.52104 11.3324 5.6679 11.2068C5.81477 11.0812 6.00183 11.0122 6.19524 11.0123H7.86333C11.1395 11.0123 13.7047 9.68455 14.4545 5.84333C14.4769 5.7296 14.4957 5.6189 14.5127 5.51062C14.3148 5.40708 14.1086 5.32027 13.8962 5.25111C13.8405 5.23268 13.7846 5.21513 13.7283 5.19849Z" fill="#222D65"/>
<path d="M28.5574 4.95313H24.412C24.2748 4.95304 24.142 5.00187 24.0377 5.09082C23.9333 5.17976 23.8642 5.30298 23.8428 5.43827L22.1663 16.0467C22.1585 16.0959 22.1616 16.1462 22.1753 16.1941C22.1889 16.2421 22.2128 16.2865 22.2453 16.3243C22.2778 16.3621 22.3181 16.3925 22.3635 16.4133C22.4088 16.434 22.4582 16.4448 22.5081 16.4447H24.4872C24.6245 16.4448 24.7573 16.3959 24.8617 16.3068C24.966 16.2177 25.0351 16.0944 25.0563 15.959L25.5085 13.0977C25.5297 12.9624 25.5987 12.8391 25.7029 12.7501C25.8072 12.661 25.9398 12.612 26.0771 12.612H27.3893C30.12 12.612 31.696 11.2932 32.1075 8.68001C32.293 7.53672 32.1154 6.63842 31.579 6.00931C30.9898 5.31849 29.9448 4.95313 28.5574 4.95313ZM29.0356 8.82761C28.8089 10.3121 27.6724 10.3121 26.5735 10.3121H25.9479L26.3868 7.53974C26.3996 7.45863 26.4411 7.38477 26.5036 7.33143C26.5662 7.27809 26.6458 7.24878 26.728 7.24878H27.0147C27.7633 7.24878 28.4695 7.24878 28.8344 7.67464C29.052 7.9287 29.1187 8.30617 29.0356 8.82761ZM40.9486 8.77982H38.9635C38.8813 8.77982 38.8017 8.80913 38.7391 8.86247C38.6766 8.91581 38.6351 8.98968 38.6223 9.07078L38.5344 9.62489L38.3956 9.42405C37.9658 8.8016 37.0075 8.59351 36.0511 8.59351C33.8574 8.59351 31.9839 10.2516 31.619 12.5775C31.4293 13.7377 31.699 14.8471 32.3585 15.6208C32.9634 16.3322 33.8289 16.6286 34.8588 16.6286C36.6263 16.6286 37.6064 15.4944 37.6064 15.4944L37.5179 16.0449C37.51 16.0941 37.5129 16.1444 37.5264 16.1924C37.5399 16.2404 37.5636 16.2849 37.596 16.3228C37.6284 16.3608 37.6686 16.3913 37.714 16.4122C37.7593 16.4331 37.8086 16.444 37.8586 16.4441H39.6467C39.784 16.4442 39.9168 16.3952 40.0212 16.3062C40.1255 16.2171 40.1946 16.0937 40.2158 15.9584L41.2887 9.17785C41.2966 9.12875 41.2937 9.07851 41.2802 9.03063C41.2668 8.98274 41.2431 8.93834 41.2107 8.90049C41.1784 8.86265 41.1382 8.83226 41.093 8.81142C41.0477 8.79059 40.9985 8.7798 40.9486 8.77982ZM38.1816 12.6356C37.9901 13.7673 37.09 14.5271 35.9419 14.5271C35.3655 14.5271 34.9048 14.3426 34.609 13.993C34.3157 13.6458 34.2042 13.1515 34.2975 12.6011C34.4763 11.479 35.3916 10.6944 36.522 10.6944C37.0857 10.6944 37.544 10.8813 37.8458 11.234C38.1483 11.5903 38.2683 12.0875 38.1816 12.6356ZM51.5209 8.77982H49.5261C49.432 8.77997 49.3394 8.80302 49.2563 8.84698C49.1732 8.89094 49.102 8.95447 49.0491 9.03207L46.2978 13.0765L45.1316 9.18995C45.0958 9.07141 45.0227 8.96752 44.9232 8.89366C44.8236 8.81979 44.7029 8.77988 44.5788 8.77982H42.6186C42.5635 8.77967 42.5093 8.79265 42.4603 8.81766C42.4113 8.84267 42.369 8.87899 42.3369 8.92361C42.3048 8.96823 42.2839 9.01985 42.2759 9.07417C42.2678 9.12849 42.2729 9.18395 42.2906 9.23593L44.4879 15.671L42.4222 18.5813C42.3855 18.6329 42.3637 18.6935 42.3592 18.7567C42.3548 18.8198 42.3678 18.8829 42.3969 18.9392C42.426 18.9954 42.4701 19.0425 42.5242 19.0754C42.5784 19.1083 42.6406 19.1257 42.704 19.1257H44.6964C44.7894 19.1258 44.8811 19.1034 44.9635 19.0604C45.046 19.0175 45.1168 18.9552 45.1698 18.8789L51.8046 9.32122C51.8405 9.26951 51.8616 9.20896 51.8656 9.14614C51.8695 9.08332 51.8561 9.02063 51.8269 8.96485C51.7977 8.90907 51.7537 8.86234 51.6998 8.82972C51.6458 8.79711 51.584 8.77985 51.5209 8.77982Z" fill="#253B80"/>
<path d="M58.1219 4.95373H53.9759C53.8388 4.95379 53.7062 5.00268 53.602 5.09162C53.4977 5.18055 53.4287 5.30369 53.4074 5.43887L51.7308 16.0473C51.723 16.0964 51.726 16.1467 51.7395 16.1946C51.753 16.2424 51.7768 16.2868 51.8092 16.3247C51.8416 16.3625 51.8818 16.3929 51.9271 16.4137C51.9723 16.4345 52.0216 16.4453 52.0715 16.4453H54.199C54.295 16.4452 54.3878 16.4109 54.4607 16.3485C54.5335 16.2862 54.5818 16.2 54.5966 16.1054L55.0724 13.0983C55.0937 12.963 55.1626 12.8397 55.2669 12.7507C55.3711 12.6616 55.5038 12.6126 55.641 12.6126H56.9527C59.6839 12.6126 61.2593 11.2939 61.6715 8.68062C61.8575 7.53732 61.6787 6.63902 61.1423 6.00991C60.5537 5.3191 59.5094 4.95373 58.1219 4.95373ZM58.6002 8.82822C58.3741 10.3127 57.2376 10.3127 56.138 10.3127H55.5131L55.9526 7.54035C55.9652 7.45924 56.0064 7.38531 56.0689 7.33194C56.1314 7.27857 56.211 7.24928 56.2932 7.24938H56.5799C57.3279 7.24938 58.0346 7.24939 58.3995 7.67525C58.6171 7.92931 58.6832 8.30678 58.6002 8.82822ZM70.5126 8.78043H68.5287C68.4464 8.7802 68.3668 8.80944 68.3043 8.86283C68.2418 8.91623 68.2005 8.99023 68.188 9.07139L68.1002 9.62549L67.9607 9.42466C67.531 8.8022 66.5733 8.59411 65.6168 8.59411C63.4232 8.59411 61.5502 10.2522 61.1853 12.5781C60.9962 13.7383 61.2647 14.8477 61.9242 15.6214C62.5304 16.3328 63.3947 16.6292 64.4245 16.6292C66.192 16.6292 67.1722 15.495 67.1722 15.495L67.0837 16.0455C67.0758 16.0948 67.0787 16.1452 67.0922 16.1933C67.1058 16.2414 67.1297 16.2859 67.1622 16.3239C67.1947 16.3619 67.2351 16.3923 67.2805 16.4132C67.326 16.4341 67.3755 16.4448 67.4255 16.4447H69.213C69.3502 16.4446 69.4829 16.3956 69.5872 16.3066C69.6914 16.2175 69.7603 16.0943 69.7816 15.959L70.855 9.17846C70.8627 9.1292 70.8595 9.07888 70.8458 9.03095C70.8321 8.98303 70.8081 8.93863 70.7756 8.90082C70.743 8.863 70.7027 8.83266 70.6573 8.81188C70.6119 8.7911 70.5625 8.78037 70.5126 8.78043ZM67.7456 12.6362C67.5552 13.768 66.6539 14.5277 65.5059 14.5277C64.9307 14.5277 64.4688 14.3432 64.173 13.9936C63.8796 13.6464 63.7693 13.1522 63.8614 12.6017C64.0415 11.4796 64.9555 10.695 66.086 10.695C66.6497 10.695 67.1079 10.8819 67.4098 11.2346C67.7134 11.5909 67.8335 12.0881 67.7456 12.6362ZM72.8529 5.24469L71.1514 16.0473C71.1436 16.0964 71.1466 16.1467 71.1602 16.1946C71.1737 16.2424 71.1975 16.2868 71.2298 16.3247C71.2622 16.3625 71.3024 16.3929 71.3477 16.4137C71.393 16.4345 71.4422 16.4453 71.4921 16.4453H73.2026C73.4869 16.4453 73.7281 16.2396 73.7718 15.9596L75.4496 5.35176C75.4574 5.30259 75.4544 5.25232 75.4409 5.20441C75.4273 5.15649 75.4036 5.11207 75.3712 5.07419C75.3388 5.03631 75.2986 5.00588 75.2533 4.98498C75.2081 4.96408 75.1588 4.95321 75.1089 4.95312H73.1935C73.1113 4.95342 73.0318 4.98292 72.9694 5.03634C72.907 5.08977 72.8657 5.16363 72.8529 5.24469Z" fill="#179BD7"/>
<path d="M14.5181 5.50781C14.5011 5.61609 14.4817 5.72679 14.4599 5.84052C13.7101 9.68234 11.1449 11.0095 7.86877 11.0095H6.20068C5.80002 11.0095 5.4624 11.2999 5.39997 11.6943L4.54592 17.0998L4.30407 18.6321C4.29444 18.6928 4.29811 18.755 4.31485 18.8142C4.33159 18.8734 4.36099 18.9283 4.40102 18.9751C4.44106 19.0219 4.49078 19.0595 4.54677 19.0853C4.60276 19.1111 4.66368 19.1244 4.72534 19.1245H7.68389C8.03424 19.1245 8.33186 18.8704 8.38701 18.5256L8.41611 18.3756L8.97315 14.8477L9.00891 14.6541C9.06347 14.3081 9.36169 14.0541 9.71203 14.0541H10.1545C13.0209 14.0541 15.2649 12.8926 15.9207 9.53171C16.1947 8.1277 16.0528 6.95538 15.3279 6.13088C15.0981 5.87582 14.8237 5.66468 14.5181 5.50781Z" fill="#179BD7"/>
<path d="M6.37228 5.52834C6.3981 5.36105 6.4832 5.20855 6.61211 5.09855C6.74102 4.98855 6.90519 4.92835 7.07479 4.92887H11.5311C12.0591 4.92887 12.5519 4.96335 13.0016 5.03594C13.306 5.08368 13.6061 5.15507 13.8993 5.24948C14.1205 5.32267 14.326 5.40917 14.5157 5.50899C14.7388 4.08925 14.5139 3.12259 13.7447 2.24728C12.8968 1.28365 11.3663 0.871094 9.40782 0.871094H3.72224C3.32219 0.871094 2.98094 1.16145 2.91911 1.55646L0.550929 16.5372C0.539898 16.6068 0.544095 16.6779 0.56323 16.7457C0.582366 16.8134 0.615986 16.8763 0.661777 16.9298C0.707569 16.9834 0.764446 17.0265 0.828496 17.056C0.892546 17.0856 0.962248 17.1009 1.03281 17.101H4.54296L5.42428 11.5206L6.37228 5.52834Z" fill="#253B80"/>
</svg>
